name analog
datacolumns 19
datarows 63
range 0.5515 0.5825
endheader
time	ground_force_vx	ground_force_vy	ground_force_vz	ground_force_px	ground_force_py	ground_force_pz	l_ground_force_vx	l_ground_force_vy	l_ground_force_vz	l_ground_force_px	l_ground_force_py	l_ground_force_pz	ground_torque_x	ground_torque_y	ground_torque_z	l_ground_torque_x	l_ground_torque_y	l_ground_torque_z
0.5515	-0.0	-0.0	-0.0	-0.0	-0.0	-0.0	-6.259267807006836	1.1379122734069824	-528.3475952148438	-0.0	-0.0	-0.0	-0.0	-0.0	-0.0	152401.015625	41930.48828125	-2456.619384765625
0.552	-0.0	-0.0	-0.0	-0.0	-0.0	-0.0	-5.598940372467041	0.6863411068916321	-523.9966430664062	-0.0	-0.0	-0.0	-0.0	-0.0	-0.0	151198.015625	41720.828125	-2189.211181640625
0.5525	-0.0	-0.0	-0.0	-0.0	-0.0	-0.0	-5.135195255279541	0.1474619954824447	-520.0810546875	-0.0	-0.0	-0.0	-0.0	-0.0	-0.0	149758.5625	41635.0234375	-2063.58837890625
0.553	-0.0	-0.0	-0.0	-0.0	-0.0	-0.0	-4.948003768920898	-0.9029301404953004	-515.2308959960938	-0.0	-0.0	-0.0	-0.0	-0.0	-0.0	148954.96875	41340.55859375	-2063.743896484375
0.5535	-0.0	-0.0	-0.0	-0.0	-0.0	-0.0	-5.40159273147583	-1.491746425628662	-509.6844787597656	-0.0	-0.0	-0.0	-0.0	-0.0	-0.0	147648.6875	40906.7734375	-2195.9560546875
0.554	-0.0	-0.0	-0.0	-0.0	-0.0	-0.0	-5.243590354919434	-1.982432007789612	-504.6036682128906	-0.0	-0.0	-0.0	-0.0	-0.0	-0.0	146293.203125	40662.46484375	-2278.374267578125
0.5545	-0.0	-0.0	-0.0	-0.0	-0.0	-0.0	-4.809382438659668	-2.226958751678467	-499.05615234375	-0.0	-0.0	-0.0	-0.0	-0.0	-0.0	144916.53125	39967.4609375	-2245.20947265625
0.555	-0.0	-0.0	-0.0	-0.0	-0.0	-0.0	-3.924206018447876	-2.1383774280548096	-492.5791931152344	-0.0	-0.0	-0.0	-0.0	-0.0	-0.0	143498.21875	39374.91015625	-2244.53564453125
0.5555	-0.0	-0.0	-0.0	-0.0	-0.0	-0.0	-3.095618486404419	-2.9818224906921387	-486.3787841796875	-0.0	-0.0	-0.0	-0.0	-0.0	-0.0	141889.984375	38727.19140625	-2296.37841796875
0.556	-0.0	-0.0	-0.0	-0.0	-0.0	-0.0	-2.284887313842773	-3.2588374614715576	-481.6009216308594	-0.0	-0.0	-0.0	-0.0	-0.0	-0.0	140677.140625	38086.8515625	-2204.812255859375
0.5565	-0.0	-0.0	-0.0	-0.0	-0.0	-0.0	-0.8113389015197754	-4.336698532104492	-478.5652770996094	-0.0	-0.0	-0.0	-0.0	-0.0	-0.0	139912.703125	37306.9140625	-1986.16796875
0.557	-0.0	-0.0	-0.0	-0.0	-0.0	-0.0	0.3149101734161377	-3.298854112625122	-474.1827392578125	-0.0	-0.0	-0.0	-0.0	-0.0	-0.0	139330.578125	36652.61328125	-1599.5145263671875
0.5575	-0.0	-0.0	-0.0	-0.0	-0.0	-0.0	1.7429254055023191	-1.8720991611480715	-471.6009826660156	-0.0	-0.0	-0.0	-0.0	-0.0	-0.0	138972.6875	36018.3125	-1077.6044921875
0.558	-0.0	-0.0	-0.0	-0.0	-0.0	-0.0	4.049239635467529	-0.7464535236358643	-466.6919250488281	-0.0	-0.0	-0.0	-0.0	-0.0	-0.0	137989.140625	35277.6875	-291.0746765136719
0.5585	-0.0	-0.0	-0.0	-0.0	-0.0	-0.0	5.620467185974121	-0.1366865932941436	-463.4821472167969	-0.0	-0.0	-0.0	-0.0	-0.0	-0.0	137190.734375	34553.45703125	443.2752075195313
0.559	-0.0	-0.0	-0.0	-0.0	-0.0	-0.0	6.547967910766602	0.0966001898050308	-457.9614562988281	-0.0	-0.0	-0.0	-0.0	-0.0	-0.0	135697.8125	34017.4140625	978.4942626953124
0.5595	-0.0	-0.0	-0.0	-0.0	-0.0	-0.0	7.5970778465271	0.3369509279727936	-452.0867919921875	-0.0	-0.0	-0.0	-0.0	-0.0	-0.0	133855.609375	33909.6328125	1283.78564453125
0.56	-0.0	-0.0	-0.0	-0.0	-0.0	-0.0	7.4517059326171875	0.6422951817512512	-444.5970764160156	-0.0	-0.0	-0.0	-0.0	-0.0	-0.0	132080.921875	33365.8359375	1583.04052734375
0.5605	-0.0	-0.0	-0.0	-0.0	-0.0	-0.0	7.137258052825928	1.2365036010742188	-439.3917236328125	-0.0	-0.0	-0.0	-0.0	-0.0	-0.0	130093.9765625	32791.8515625	1833.701171875
0.561	-0.0	-0.0	-0.0	-0.0	-0.0	-0.0	7.378572940826416	2.087191581726074	-431.1715698242188	-0.0	-0.0	-0.0	-0.0	-0.0	-0.0	127958.7421875	32427.54296875	1874.6123046875
0.5615	-0.0	-0.0	-0.0	-0.0	-0.0	-0.0	7.152698993682861	2.40979552268982	-422.9821166992188	-0.0	-0.0	-0.0	-0.0	-0.0	-0.0	125660.484375	32058.876953125	2162.740478515625
0.562	-0.0	-0.0	-0.0	-0.0	-0.0	-0.0	6.782603740692139	3.043343305587769	-416.3484802246094	-0.0	-0.0	-0.0	-0.0	-0.0	-0.0	123664.890625	31872.138671875	2154.978515625
0.5625	-0.0	-0.0	-0.0	-0.0	-0.0	-0.0	6.202366352081299	3.0581326484680176	-412.2171020507813	-0.0	-0.0	-0.0	-0.0	-0.0	-0.0	122077.0078125	31686.15625	2302.91552734375
0.5630000000000001	-0.0	-0.0	-0.0	-0.0	-0.0	-0.0	5.507327079772949	2.6496505737304688	-407.0822448730469	-0.0	-0.0	-0.0	-0.0	-0.0	-0.0	120949.0	31677.8828125	2037.7900390625
0.5635	-0.0	-0.0	-0.0	-0.0	-0.0	-0.0	4.421245574951172	2.7785754203796387	-403.7235412597656	-0.0	-0.0	-0.0	-0.0	-0.0	-0.0	119731.5390625	31621.623046875	1778.912841796875
0.5640000000000001	-0.0	-0.0	-0.0	-0.0	-0.0	-0.0	3.248432874679565	2.425365209579468	-399.8568420410156	-0.0	-0.0	-0.0	-0.0	-0.0	-0.0	118742.28125	31492.87890625	1595.7982177734375
0.5645	-0.0	-0.0	-0.0	-0.0	-0.0	-0.0	3.27543568611145	2.391518831253052	-397.6837158203125	-0.0	-0.0	-0.0	-0.0	-0.0	-0.0	117828.71875	31341.59765625	1550.0570068359375
0.5650000000000001	-0.0	-0.0	-0.0	-0.0	-0.0	-0.0	2.7842907905578613	2.106314420700073	-396.1257629394531	-0.0	-0.0	-0.0	-0.0	-0.0	-0.0	117563.7890625	31434.88671875	1531.3389892578125
0.5655	-0.0	-0.0	-0.0	-0.0	-0.0	-0.0	2.8666043281555176	1.895631432533264	-395.9119873046875	-0.0	-0.0	-0.0	-0.0	-0.0	-0.0	117036.9296875	31385.5390625	1483.5157470703125
0.5660000000000001	-0.0	-0.0	-0.0	-0.0	-0.0	-0.0	2.5097784996032715	0.7130142450332642	-395.00140380859375	-0.0	-0.0	-0.0	-0.0	-0.0	-0.0	116797.1875	31419.423828125	1412.089599609375
0.5665	-0.0	-0.0	-0.0	-0.0	-0.0	-0.0	2.0941760540008545	-0.4005912542343139	-394.0051879882813	-0.0	-0.0	-0.0	-0.0	-0.0	-0.0	116589.234375	31400.333984375	1154.061767578125
0.5670000000000001	-0.0	-0.0	-0.0	-0.0	-0.0	-0.0	1.9103845357894895	-1.3720752000808716	-393.6073913574219	-0.0	-0.0	-0.0	-0.0	-0.0	-0.0	115916.515625	31684.927734375	1053.0460205078125
0.5675	-0.0	-0.0	-0.0	-0.0	-0.0	-0.0	1.673315167427063	-1.854755401611328	-391.4895935058594	-0.0	-0.0	-0.0	-0.0	-0.0	-0.0	115413.609375	31434.44921875	1070.662353515625
0.5680000000000001	-0.0	-0.0	-0.0	-0.0	-0.0	-0.0	1.602734923362732	-2.367140769958496	-389.7693481445313	-0.0	-0.0	-0.0	-0.0	-0.0	-0.0	114780.6015625	31476.4921875	977.4653930664062
0.5685	-0.0	-0.0	-0.0	-0.0	-0.0	-0.0	1.945826768875122	-3.1325273513793945	-388.16510009765625	-0.0	-0.0	-0.0	-0.0	-0.0	-0.0	114007.4296875	31293.529296875	872.762939453125
0.5690000000000001	-0.0	-0.0	-0.0	-0.0	-0.0	-0.0	1.8686058521270752	-3.7208197116851807	-385.2776489257813	-0.0	-0.0	-0.0	-0.0	-0.0	-0.0	113637.390625	31412.44921875	858.7418823242188
0.5695	-0.0	-0.0	-0.0	-0.0	-0.0	-0.0	2.420137405395508	-4.664485931396484	-382.71380615234375	-0.0	-0.0	-0.0	-0.0	-0.0	-0.0	112953.1953125	31205.92578125	886.7489013671875
0.5700000000000001	-0.0	-0.0	-0.0	-0.0	-0.0	-0.0	2.353553295135498	-5.539044380187988	-381.9718627929688	-0.0	-0.0	-0.0	-0.0	-0.0	-0.0	112235.84375	31311.30859375	1022.7675170898438
0.5705	-0.0	-0.0	-0.0	-0.0	-0.0	-0.0	2.317042112350464	-6.052664279937744	-381.7868957519531	-0.0	-0.0	-0.0	-0.0	-0.0	-0.0	112140.2265625	31251.322265625	897.09521484375
0.5710000000000001	-0.0	-0.0	-0.0	-0.0	-0.0	-0.0	1.6437249183654783	-6.369417667388916	-380.9244384765625	-0.0	-0.0	-0.0	-0.0	-0.0	-0.0	112114.5859375	31282.390625	756.8453979492188
0.5715	-0.0	-0.0	-0.0	-0.0	-0.0	-0.0	1.690544605255127	-6.744064807891846	-382.1365356445313	-0.0	-0.0	-0.0	-0.0	-0.0	-0.0	112322.09375	31278.640625	500.4075317382813
0.5720000000000001	-0.0	-0.0	-0.0	-0.0	-0.0	-0.0	1.0177311897277832	-7.367564678192139	-383.3877258300781	-0.0	-0.0	-0.0	-0.0	-0.0	-0.0	112415.90625	31165.86328125	326.7905578613281
0.5725	-0.0	-0.0	-0.0	-0.0	-0.0	-0.0	1.4098604917526243	-7.739985466003418	-383.5711364746094	-0.0	-0.0	-0.0	-0.0	-0.0	-0.0	112662.3359375	31288.171875	314.4850769042969
0.5730000000000001	-0.0	-0.0	-0.0	-0.0	-0.0	-0.0	1.7742156982421875	-7.767704010009766	-387.1909484863281	-0.0	-0.0	-0.0	-0.0	-0.0	-0.0	113364.8828125	31088.9375	383.37493896484375
0.5735	-0.0	-0.0	-0.0	-0.0	-0.0	-0.0	1.783197283744812	-8.436956405639648	-389.6178588867188	-0.0	-0.0	-0.0	-0.0	-0.0	-0.0	114199.109375	30915.44921875	341.01251220703125
0.5740000000000001	-0.0	-0.0	-0.0	-0.0	-0.0	-0.0	1.8629264831542969	-8.869787216186523	-392.629638671875	-0.0	-0.0	-0.0	-0.0	-0.0	-0.0	115000.9765625	30917.67578125	441.10296630859375
0.5745	-0.0	-0.0	-0.0	-0.0	-0.0	-0.0	2.1375114917755127	-9.042452812194824	-394.8738403320313	-0.0	-0.0	-0.0	-0.0	-0.0	-0.0	115584.6796875	30897.416015625	415.9332580566406
0.5750000000000001	-0.0	-0.0	-0.0	-0.0	-0.0	-0.0	2.614920139312744	-8.878368377685547	-397.1519165039063	-0.0	-0.0	-0.0	-0.0	-0.0	-0.0	116630.4375	30907.607421875	506.63275146484375
0.5755	-0.0	-0.0	-0.0	-0.0	-0.0	-0.0	2.530250072479248	-8.793959617614746	-400.8260498046875	-0.0	-0.0	-0.0	-0.0	-0.0	-0.0	117555.6875	30473.955078125	425.0299377441406
0.5760000000000001	-0.0	-0.0	-0.0	-0.0	-0.0	-0.0	3.050943613052368	-8.52495002746582	-404.8337707519531	-0.0	-0.0	-0.0	-0.0	-0.0	-0.0	118998.875	30230.23046875	415.3010559082031
0.5765	-0.0	-0.0	-0.0	-0.0	-0.0	-0.0	3.853367328643799	-8.521200180053711	-408.5365295410156	-0.0	-0.0	-0.0	-0.0	-0.0	-0.0	120548.484375	29893.779296875	625.9962158203125
0.577	-0.0	-0.0	-0.0	-0.0	-0.0	-0.0	4.879093170166016	-8.429389953613281	-410.0715637207031	-0.0	-0.0	-0.0	-0.0	-0.0	-0.0	121474.109375	29369.294921875	817.6868896484375
0.5775	-0.0	-0.0	-0.0	-0.0	-0.0	-0.0	6.0323333740234375	-8.302238464355469	-414.4700622558594	-0.0	-0.0	-0.0	-0.0	-0.0	-0.0	122624.078125	28889.56640625	1025.0162353515625
0.578	-0.0	-0.0	-0.0	-0.0	-0.0	-0.0	7.760530471801758	-8.308862686157227	-416.369873046875	-0.0	-0.0	-0.0	-0.0	-0.0	-0.0	123351.8984375	28162.328125	1573.3780517578125
0.5785	-0.0	-0.0	-0.0	-0.0	-0.0	-0.0	9.902356147766112	-8.289604187011719	-420.0294189453125	-0.0	-0.0	-0.0	-0.0	-0.0	-0.0	124710.2109375	27499.689453125	1885.951416015625
0.579	-0.0	-0.0	-0.0	-0.0	-0.0	-0.0	11.841368675231934	-8.07689094543457	-423.1837463378906	-0.0	-0.0	-0.0	-0.0	-0.0	-0.0	125947.984375	27118.27734375	2470.519775390625
0.5795	-0.0	-0.0	-0.0	-0.0	-0.0	-0.0	12.789008140563965	-7.897495746612549	-428.0945129394531	-0.0	-0.0	-0.0	-0.0	-0.0	-0.0	127423.71875	26588.1328125	2753.463623046875
0.58	-0.0	-0.0	-0.0	-0.0	-0.0	-0.0	13.306617736816406	-7.461800098419189	-432.42974853515625	-0.0	-0.0	-0.0	-0.0	-0.0	-0.0	129355.59375	26495.94921875	2840.02001953125
0.5805	-0.0	-0.0	-0.0	-0.0	-0.0	-0.0	13.129196166992188	-6.541074752807617	-437.5078430175781	-0.0	-0.0	-0.0	-0.0	-0.0	-0.0	131156.71875	26669.056640625	2840.149169921875
0.581	-0.0	-0.0	-0.0	-0.0	-0.0	-0.0	13.126681327819824	-6.096700191497803	-442.9136657714844	-0.0	-0.0	-0.0	-0.0	-0.0	-0.0	133022.125	26932.716796875	2691.962158203125
0.5815	-0.0	-0.0	-0.0	-0.0	-0.0	-0.0	11.88486385345459	-4.860063552856445	-447.6217651367188	-0.0	-0.0	-0.0	-0.0	-0.0	-0.0	134933.78125	27506.482421875	2352.269775390625
0.582	-0.0	-0.0	-0.0	-0.0	-0.0	-0.0	10.686243057250977	-3.931445598602295	-452.008056640625	-0.0	-0.0	-0.0	-0.0	-0.0	-0.0	137133.421875	27987.0	1978.88037109375
0.5825	-0.0	-0.0	-0.0	-0.0	-0.0	-0.0	9.221687316894531	-2.9556148052215576	-459.6622924804688	-0.0	-0.0	-0.0	-0.0	-0.0	-0.0	138960.546875	28749.4765625	1713.259765625
